<?xml version="1.0" encoding="utf-8"?>
<!-- Uploaded to: SVG Repo, www.svgrepo.com, Generator: SVG Repo Mixer Tools -->
<svg width="800px" height="800px" viewBox="-8.5 0 32 32" version="1.1" xmlns="http://www.w3.org/2000/svg">
<title>arrow-top</title>
<path d="M15.16 13.16l-6.84-6.84c-0.28-0.28-0.84-0.24-1.16 0.080l-6.92 6.76c-0.32 0.32-0.32 0.84 0 1.2 0.32 0.32 0.84 0.32 1.2 0l5.44-5.44v16.2c0 0.48 0.36 0.84 0.84 0.84s0.84-0.36 0.84-0.84v-16.2l5.44 5.44c0.16 0.16 0.36 0.24 0.6 0.24 0.2 0 0.44-0.080 0.6-0.24 0.32-0.32 0.32-0.84-0.040-1.2z"></path>
</svg>