<?xml version="1.0" encoding="iso-8859-1"?>
<!-- Uploaded to: SVG Repo, www.svgrepo.com, Generator: SVG Repo Mixer Tools -->
<!DOCTYPE svg PUBLIC "-//W3C//DTD SVG 1.1//EN" "http://www.w3.org/Graphics/SVG/1.1/DTD/svg11.dtd">
<svg fill="#808080" version="1.1" id="Capa_1" xmlns="http://www.w3.org/2000/svg" xmlns:xlink="http://www.w3.org/1999/xlink" 
	 width="800px" height="800px" viewBox="0 0 463.938 463.938"
	 xml:space="preserve">
<g>
	<g>
		<path d="M175.39,7.848c0-4.334-3.519-7.848-7.851-7.848H22.308c-4.332,0-7.851,3.514-7.851,7.848v10.894
			c0,4.336,3.519,7.851,7.851,7.851h145.231c0.533,0,1.004-0.202,1.513-0.307l1.792-5.43c0.89-2.677,2.544-4.865,4.546-6.66V7.848z"
			/>
		<path d="M85.699,332.55h18.438c4.42-0.629,9.706-1.884,14.32-4.324c0.293-1.947,0.755-3.907,1.491-5.87
			c3.857-10.235,3.857-10.235,3.672-14.419c-0.226-5.33-0.639-15.253,1.817-42.314c2.204-24.333,4.466-35.546,5.957-42.972
			c1.852-9.201,2.292-11.381-0.242-28.75c-2.304-15.761-3.573-24.445,6.452-27.923c0.525-0.181,2.128-0.738,4.615-8.288
			c6.973-21.125,12.187-74.855,13.371-87.855c-1.17-2.15-1.721-4.552-1.617-7.113c0.344-8.501,8.275-15.597,9.858-16.931
			l3.354-2.829l1.238,0.411c-0.894-1.721-1.449-3.597-1.671-5.544H94.922H14.458c0,0-7.851,12.758,0,16.683
			c0,0,15.699,65.748,15.699,92.243c0,26.493-14.719,4.905,0,34.343c14.722,29.441,4.907,16.683,17.665,71.633
			c12.756,54.949,13.737,33.959,12.756,57.702C59.926,326.227,75.304,331.063,85.699,332.55z"/>
		<path d="M69.409,384.286h31.134l8.386-25.407c2.128-6.456,8.115-10.788,14.907-10.788l0,0c0.024,0,0.046,0.008,0.07,0.008
			c-1.2-1.534-2.278-3.198-3.156-4.978c-0.441-0.889-0.689-1.823-1.02-2.736h-15.106H85.207H69.409
			c-4.332,0-7.851,3.522-7.851,7.851v28.184C61.559,380.771,65.077,384.286,69.409,384.286z"/>
		<path d="M320.26,89.485c3.299,0,6.372-2.09,7.454-5.394l3.41-10.357c1.363-4.114-0.873-8.556-4.989-9.912l-137.919-45.5
			c-0.817-0.269-1.649-0.403-2.457-0.403c-0.872,0-1.711,0.164-2.519,0.441c-2.106,0.713-3.837,2.338-4.719,4.53
			c-0.062,0.146-0.172,0.265-0.218,0.431l-0.143,0.433l-2.058,6.231l-0.759,2.308l-0.457,1.385c-0.022,0.076-0.008,0.152-0.03,0.232
			c-0.395,1.334-0.33,2.653-0.038,3.925c0.391,1.729,1.285,3.29,2.691,4.404c0.705,0.557,1.467,1.05,2.368,1.35l2.389,0.786
			l4.216,1.391L317.8,89.083C318.621,89.352,319.454,89.485,320.26,89.485z"/>
		<path d="M313.263,99.416L245.321,77l-61.107-20.16l-3.995-1.318l-4.328-1.429l-6.987-2.308c0,0-11.454,9.656-5.23,15.841
			c0,0-5.687,67.357-13.986,92.52c-8.299,25.161-15.513,0.046-10.764,32.616c4.757,32.575-0.562,17.384-5.668,73.564
			c-0.94,10.403-1.449,18.186-1.711,24.137c-1.146,26.196,2.577,16.543-4.246,34.66c-0.247,0.649-0.339,1.246-0.511,1.876
			c-0.567,2.039-0.881,3.995-0.793,5.811c0.016,0.284,0.088,0.553,0.12,0.829c0.179,1.855,0.659,3.595,1.379,5.222
			c1.036,2.337,2.502,4.469,4.286,6.348c1.338,1.419,2.829,2.674,4.366,3.832c2.683,2.016,5.52,3.658,8.103,4.937l17.506,5.774
			c2.753,0.497,5.887,0.891,9.135,0.891c0.269,0,0.537-0.041,0.802-0.041c5.55-6.676,5.707-7.037,6.823-10.756
			c1.537-5.105,4.396-14.61,15.597-39.373c10.075-22.265,15.886-32.115,19.73-38.639c4.763-8.088,5.903-9.999,9.199-27.23
			c3.001-15.649,4.648-24.262,15.349-24.262c1.791,0,4.788-3.43,6.988-6.313c13.514-17.671,36.063-66.712,41.449-78.609
			c-0.396-2.419-0.128-4.869,0.806-7.25c3.121-7.918,12.936-12.016,14.875-12.764l4.092-1.568l1.034,0.781
			c-0.008-0.068-0.044-0.13-0.052-0.194c-0.554-4.16,0.545-8.279,3.098-11.611L313.263,99.416z"/>
		<path d="M112.547,398.023l25.269,8.331l10.089-13.192c2.998-3.919,7.544-6.163,12.473-6.163c1.805,0,3.551,0.328,5.214,0.918
			c-0.629-1.855-1.101-3.779-1.349-5.755c-0.561-4.408,0.156-8.688,1.819-12.704l-6.27-2.071l-18.719-6.18l-4.938-1.631
			l-3.925-1.299l-3.926-1.294l-1.985-0.649c-0.815-0.261-1.647-0.4-2.457-0.4c-3.296,0-6.368,2.084-7.452,5.397l-7.566,22.938
			l-1.264,3.831c-0.008,0.032,0,0.064-0.016,0.108c-0.415,1.318-0.36,2.645-0.092,3.924
			C108.003,394.785,109.792,397.109,112.547,398.023z"/>
		<path d="M449.885,185.682L334.526,97.462c-1.422-1.094-3.102-1.619-4.769-1.619c-0.473,0-0.918,0.227-1.387,0.315
			c-1.755,0.322-3.402,1.104-4.62,2.581c-0.064,0.08-0.169,0.102-0.232,0.18l-2.36,3.092l-4.256,5.57
			c-2.369,3.098-1.948,7.321,0.653,10.071c0.284,0.306,0.469,0.667,0.812,0.934l2.497,1.906l3.314,2.539l109.551,83.777
			c1.419,1.092,3.105,1.617,4.769,1.617c2.36,0,4.693-1.058,6.24-3.085l6.616-8.658
			C453.984,193.242,453.335,188.312,449.885,185.682z"/>
		<path d="M423.007,233.747c0.461,0.092,0.89,0.132,1.302,0.132c7.475,0,8.833-13.378,8.833-13.378l-63.915-48.885l-51.916-39.702
			l-3.138-2.398l-3.142-2.404l-5.727-4.374c0,0-13.979,5.364-10.135,13.252c0,0-27.472,61.767-43.562,82.807
			c-7.093,9.275-10.787,9.399-13.229,9.399c-0.06,0-0.128,0-0.188,0c-2.952,0-4.06,0.177-7.452,17.878
			c-6.189,32.327-6.231,16.237-29.484,67.633c-16.832,37.213-14.413,39.068-17.553,44.182c-0.848,1.387-2.134,3.058-4.292,5.695
			c-0.419,0.5-0.882,1.058-1.369,1.658c-0.541,0.657-1.066,1.287-1.711,2.053c-0.252,0.308-0.395,0.612-0.619,0.905
			c-0.062,0.084-0.112,0.168-0.167,0.244c-0.839,1.15-1.521,2.301-2.05,3.467c-3.24,7.146-0.901,14.334,2.961,20.31
			c0.894,1.37,1.837,2.697,2.833,3.932c0.998,1.226,2.016,2.344,3.014,3.402c0.188,0.191,0.378,0.384,0.567,0.576l14.639,11.201
			c4.971,2.781,11.676,5.67,18.262,5.67c5.55,0,10.982-2.051,15.132-7.971c13.651-19.455,1.675-2.191,45.19-38.094
			c43.517-35.911,27.976-31.731,57.55-46.174c29.571-14.447,4.77-6.228,20.871-27.278
			C370.598,276.442,423.007,233.747,423.007,233.747z"/>
		<path d="M179.022,462.318c1.423,1.098,3.102,1.619,4.765,1.619c2.366,0,4.697-1.058,6.246-3.082l17.118-22.385
			c2.637-3.451,1.978-8.372-1.467-11.009l-12.475-9.538l-13.549-10.363l-2.158-1.65l-1.146-0.882l-3.296-2.513l-7.917-6.06
			c-1.418-1.086-3.1-1.614-4.765-1.614c-2.36,0-4.691,1.058-6.24,3.09l-8.441,11.023l-2.517,3.295l-2.526,3.306l-3.645,4.761
			c-2.639,3.45-1.98,8.372,1.466,11.009L179.022,462.318z"/>
	</g>
</g>
</svg>