<?xml version="1.0" encoding="iso-8859-1"?>
<!-- Uploaded to: SVG Repo, www.svgrepo.com, Generator: SVG Repo Mixer Tools -->
<svg fill="#f53b71" height="800px" width="800px" version="1.1" id="Layer_1" xmlns="http://www.w3.org/2000/svg" xmlns:xlink="http://www.w3.org/1999/xlink" 
	 viewBox="0 0 392.594 392.594" xml:space="preserve">
<g>
	<g>
		<path d="M381.669,92.701h-34.457v-10.02c0-6.012-4.849-10.925-10.925-10.925h-19.071v-7.046c0-6.012-4.849-10.925-10.925-10.925
			c-6.077,0-10.925,4.848-10.925,10.925v7.046H71.43c-33.358,0-62.578,22.562-71.111,54.756c-1.552,6.465,2.651,13.576,10.537,13.77
			c20.752,0.129,34.198,19.523,29.091,37.56c-1.745,7.111,3.491,13.705,10.537,13.705h7.111l-36.784,133.43
			c-1.939,6.594,3.103,13.834,10.537,13.834h92.703c4.848,0,9.115-3.168,10.537-7.887l19.717-67.814
			c39.176-1.552,72.016-28.186,76.283-71.564h105.697c6.012,0,10.925-4.848,10.925-10.925v-20.881h34.457
			c6.012,0,10.925-4.849,10.925-10.925v-45.188C392.594,97.614,387.745,92.701,381.669,92.701z M115.972,317.024H45.701
			L80.157,191.61h72.21L115.972,317.024z M160.772,240.741l14.287-49.196h33.616C204.99,221.929,180.166,238.543,160.772,240.741z
			 M325.426,169.76H62.703c-0.517-22.626-13.834-41.374-36.655-49.067c8.857-16.356,26.182-27.022,45.446-27.022h253.931V169.76z
			 M370.808,138.018h-23.596v-23.402h23.596V138.018z"/>
	</g>
</g>
</svg>