<svg width="42" height="46" viewBox="0 0 42 46" fill="none" xmlns="http://www.w3.org/2000/svg">
<path d="M41.1533 23C41.1533 22.39 40.9162 21.805 40.4943 21.3737C40.0723 20.9423 39.5 20.7 38.9033 20.7H16.6725L21.8475 15.433C22.0573 15.2186 22.2237 14.964 22.3372 14.6838C22.4508 14.4036 22.5092 14.1033 22.5092 13.8C22.5092 13.4967 22.4508 13.1964 22.3372 12.9162C22.2237 12.636 22.0573 12.3814 21.8475 12.167C21.6377 11.9526 21.3887 11.7824 21.1146 11.6664C20.8405 11.5503 20.5467 11.4906 20.25 11.4906C19.9533 11.4906 19.6595 11.5503 19.3854 11.6664C19.1113 11.7824 18.8623 11.9526 18.6525 12.167L9.6525 21.367C9.44766 21.5857 9.28709 21.8437 9.18 22.126C8.95496 22.686 8.95496 23.314 9.18 23.874C9.28709 24.1563 9.44766 24.4143 9.6525 24.633L18.6525 33.833C18.8617 34.0486 19.1105 34.2197 19.3847 34.3365C19.6589 34.4532 19.953 34.5133 20.25 34.5133C20.547 34.5133 20.8411 34.4532 21.1153 34.3365C21.3895 34.2197 21.6383 34.0486 21.8475 33.833C22.0584 33.6192 22.2258 33.3648 22.34 33.0845C22.4542 32.8042 22.513 32.5036 22.513 32.2C22.513 31.8964 22.4542 31.5957 22.34 31.3155C22.2258 31.0352 22.0584 30.7808 21.8475 30.567L16.6725 25.3H38.9033C39.5 25.3 40.0723 25.0577 40.4943 24.6263C40.9162 24.195 41.1533 23.61 41.1533 23ZM29.25 0H6.75C4.95979 0 3.2429 0.726962 1.97703 2.02096C0.711159 3.31496 0 5.07001 0 6.9V39.1C0 40.93 0.711159 42.685 1.97703 43.979C3.2429 45.273 4.95979 46 6.75 46H29.25C31.0402 46 32.7571 45.273 34.023 43.979C35.2888 42.685 36 40.93 36 39.1V37.11C36 36.5 35.7629 35.915 35.341 35.4837C34.919 35.0523 34.3467 34.81 33.75 34.81C33.1533 34.81 32.581 35.0523 32.159 35.4837C31.7371 35.915 31.5 36.5 31.5 37.11V39.1C31.5 39.71 31.2629 40.295 30.841 40.7263C30.419 41.1577 29.8467 41.4 29.25 41.4H6.75C6.15326 41.4 5.58097 41.1577 5.15901 40.7263C4.73705 40.295 4.5 39.71 4.5 39.1V6.9C4.5 6.29 4.73705 5.70499 5.15901 5.27365C5.58097 4.84232 6.15326 4.6 6.75 4.6H29.25C29.8467 4.6 30.419 4.84232 30.841 5.27365C31.2629 5.70499 31.5 6.29 31.5 6.9C31.5 7.51 31.7371 8.09501 32.159 8.52635C32.581 8.95768 33.1533 9.2 33.75 9.2C34.3467 9.2 34.919 8.95768 35.341 8.52635C35.7629 8.09501 36 7.51 36 6.9C36 5.07001 35.2888 3.31496 34.023 2.02096C32.7571 0.726962 31.0402 0 29.25 0Z" fill="#FF6320"/>
</svg>
