<?xml version="1.0" encoding="utf-8"?><!-- Uploaded to: SVG Repo, www.svgrepo.com, Generator: SVG Repo Mixer Tools -->
<svg width="800px" height="800px" viewBox="0 0 24 24" xmlns="http://www.w3.org/2000/svg">
<path fill-rule="evenodd" clip-rule="evenodd" d="M3.53846 19.1795C3.53846 19.8875 4.11246 20.4615 4.82051 20.4615H7.12821V15.8462H3.53846L3.53846 19.1795ZM3.53846 14.3077H7.12821L7.12821 9.69231H3.53846L3.53846 14.3077ZM3.53846 8.15385H7.12821V3.53846L4.82051 3.53846C4.11246 3.53846 3.53846 4.11246 3.53846 4.82051L3.53846 8.15385ZM8.66667 3.53846L8.66667 20.4615H15.3333L15.3333 3.53846L8.66667 3.53846ZM16.8718 3.53846V8.15385H20.4615V4.82051C20.4615 4.11246 19.8875 3.53846 19.1795 3.53846L16.8718 3.53846ZM20.4615 9.69231H16.8718V14.3077H20.4615V9.69231ZM20.4615 15.8462H16.8718L16.8718 20.4615H19.1795C19.8875 20.4615 20.4615 19.8875 20.4615 19.1795V15.8462ZM4.82051 22C3.26279 22 2 20.7372 2 19.1795L2 4.82051C2 3.26279 3.26279 2 4.82051 2L19.1795 2C20.7372 2 22 3.26279 22 4.82051V19.1795C22 20.7372 20.7372 22 19.1795 22H4.82051Z" />
</svg>