<?xml version="1.0" encoding="utf-8"?><!-- Uploaded to: SVG Repo, www.svgrepo.com, Generator: SVG Repo Mixer Tools -->
<svg width="800px" height="800px" viewBox="0 -0.02 98.159 98.159" xmlns="http://www.w3.org/2000/svg">
  <path id="Path_33" data-name="Path 33" d="M789.271,734.758a10.112,10.112,0,0,0-20.224,0c0,.084.01.168.012.252l-5.29,4.283-.1-.1-.951.952-4.91,3.977-5.961-5.961-7.655.76-.765,7.657,3.65,3.652-29.32,25.454a2.035,2.035,0,0,0-.406.486l-25.958,43.561a2,2,0,0,0,2.741,2.745l43.609-25.908a1.953,1.953,0,0,0,.488-.409l25.457-29.321,3.651,3.651.943-.093,6.715-.67.76-7.657-5.963-5.961,9.109-11.249c.086,0,.17.012.256.012h.016a10.088,10.088,0,0,0,7.133-2.957l-1.415-1.415,1.416,1.413A10.11,10.11,0,0,0,789.271,734.758Zm-53.847,58.535-36.563,21.72L720.623,778.5l29.291-25.43,4.055,4.055L723.2,787.888l2.826,2.83,30.768-30.77L760.853,764Zm36.168-29.733-.252,2.51-2.512.251L747.6,745.088l.25-2.51,2.509-.251,11.987,11.987,4.92,4.921,0,0ZM763.8,750.116l-3.147-3.149,2.832-2.3,5.76,5.758-2.3,2.836Zm10.818-6.32-2.842,3.507-5.164-5.165,3.508-2.842c.006.014.016.027.021.041.067.131.141.259.213.387.082.144.164.289.254.43.069.109.139.215.211.322.117.17.24.335.367.5.061.078.12.158.182.234.2.241.408.478.635.7h0l0,0h0c.224.224.459.432.7.63.082.067.166.129.248.193.16.125.322.245.488.36.106.071.211.14.319.208.148.094.3.181.451.266.119.068.236.136.357.2C774.586,743.776,774.6,743.787,774.621,743.8Zm8.859-4.712a6.1,6.1,0,0,1-4.32,1.788c-.189,0-.379-.01-.568-.027l-.3-.042a6.177,6.177,0,0,1-1.815-.552l-.041-.019a6.1,6.1,0,0,1-.777-.463c-.041-.028-.078-.058-.117-.086a5.908,5.908,0,0,1-.7-.6h0a6.056,6.056,0,0,1-.606-.717l-.076-.1a6.274,6.274,0,0,1-.476-.8v0a6.15,6.15,0,0,1-.567-1.843l-.041-.289c-.017-.19-.027-.382-.027-.573a6.112,6.112,0,1,1,10.435,4.326Z" transform="translate(-691.112 -724.647)" fill="#f53b71"/>
</svg>