<svg width="15" height="20" viewBox="0 0 15 20" fill="none" xmlns="http://www.w3.org/2000/svg">
<path d="M11.1211 0H3.12109C2.32544 0 1.56238 0.316071 0.999774 0.87868C0.437164 1.44129 0.121094 2.20435 0.121094 3V17C0.121094 17.7956 0.437164 18.5587 0.999774 19.1213C1.56238 19.6839 2.32544 20 3.12109 20H11.1211C11.9167 20 12.6798 19.6839 13.2424 19.1213C13.805 18.5587 14.1211 17.7956 14.1211 17V3C14.1211 2.20435 13.805 1.44129 13.2424 0.87868C12.6798 0.316071 11.9167 0 11.1211 0ZM12.1211 17C12.1211 17.2652 12.0157 17.5196 11.8282 17.7071C11.6407 17.8946 11.3863 18 11.1211 18H3.12109C2.85588 18 2.60152 17.8946 2.41399 17.7071C2.22645 17.5196 2.12109 17.2652 2.12109 17V16H12.1211V17ZM12.1211 14H2.12109V3C2.12109 2.73478 2.22645 2.48043 2.41399 2.29289C2.60152 2.10536 2.85588 2 3.12109 2H11.1211C11.3863 2 11.6407 2.10536 11.8282 2.29289C12.0157 2.48043 12.1211 2.73478 12.1211 3V14Z" fill="#FF6320"/>
</svg>
