<svg height="511pt" viewBox="1 -54 511.999 511" width="511pt" xmlns="http://www.w3.org/2000/svg"><path d="m378.699219 95.101562-84.898438-12-37.800781-74.699218-37.800781 74.699218-84.898438 12 61.5 58.800782-14.402343 82.199218 75.601562-39 75.601562 39-14.402343-82.199218zm0 0" fill="#fdbf00"/><path d="m313.898438 340.199219c18.601562 12.300781 33.300781 30.300781 41.101562 52.203125l-28.199219 10.199218c-10.5-30-39-50.097656-70.800781-50.097656s-60.300781 20.097656-70.800781 50.097656l-28.199219-10.199218c7.800781-21.902344 22.5-39.902344 41.101562-52.203125-69-30-117.601562-112.796875-117.601562-212.699219h30c0 54.601562 15.898438 103.5 42.300781 138.601562 26.097657 35.097657 62.398438 56.398438 103.199219 56.398438 81.597656 0 145.5-85.5 145.5-195h30c0 99.902344-48.601562 182.699219-117.601562 212.699219zm0 0" fill="#ff9f00"/><path d="m313.898438 340.199219c18.601562 12.300781 33.300781 30.300781 41.101562 52.203125l-28.199219 10.199218c-10.5-30-39-50.097656-70.800781-50.097656v-30c81.597656 0 145.5-85.503906 145.5-195h30c0 99.898438-48.601562 182.695313-117.601562 212.695313zm0 0" fill="#ff7816"/><path d="m397.226562 353.570312c-11.820312 0-40.039062-.703124-80.128906-45 27.234375-30.09375 51.839844-45 80.128906-45 11.816407 0 40.039063.71875 80.140626 45-27.253907 30.09375-51.863282 45-80.140626 45zm0 0" fill="#ff9f00"/><path d="m381.15625 240.542969c5.054688-40.261719 16.65625-66.59375 39.8125-82.820313 9.6875-6.773437 32.777344-22.363281 91.03125-9.113281-5.054688 40.28125-16.222656 66.617187-39.394531 82.839844-27.691407 19.394531-60.875 16.152343-91.449219 9.09375zm0 0" fill="#ff9f00"/><path d="m407.992188 145.753906c-15.753907-37.425781-18.863282-66.023437-6.914063-91.65625 4.992187-10.710937 17.5625-35.980468 74.648437-53.597656 15.75 37.410156 18.859376 66.011719 6.914063 91.640625-4.996094 10.710937-17.570313 35.972656-74.648437 53.613281zm0 0" fill="#ff9f00"/><g fill="#fdbf00"><path d="m114.730469 353.570312c-11.820313 0-40.039063-.703124-80.128907-45 27.234376-30.09375 51.839844-45 80.128907-45 11.816406 0 40.039062.71875 80.140625 45-27.253906 30.09375-51.863282 45-80.140625 45zm0 0"/><path d="m38.335938 231.449219c-9.683594-6.777344-30.898438-23.5625-38.335938-82.839844 39.527344-8.992187 67.777344-7.101563 90.957031 9.113281 9.679688 6.777344 32.386719 23.542969 39.828125 82.820313-3.128906.289062-54.058594 17.773437-92.449218-9.09375zm0 0"/><path d="m103.949219 145.753906c-38.78125-11.988281-62.695313-27.984375-74.648438-53.613281-4.992187-10.710937-16.269531-36.582031 6.914063-91.640625 38.777344 11.964844 62.699218 27.96875 74.648437 53.597656 4.992188 10.710938 16.265625 36.59375-6.914062 91.65625zm0 0"/></g><path d="m317.199219 153.902344 14.402343 82.199218-75.601562-39v-188.699218l37.800781 74.699218 84.898438 12zm0 0" fill="#ff9f00"/></svg>