<?xml version="1.0" encoding="utf-8"?>
<!-- Uploaded to: SVG Repo, www.svgrepo.com, Generator: SVG Repo Mixer Tools -->
<svg width="800px" height="800px" viewBox="0 0 32 32" version="1.1" xmlns="http://www.w3.org/2000/svg">
<title>subtitles-underline</title>
<path d="M28 2.765h-24c-1.794 0.002-3.248 1.456-3.25 3.25v15.97c0.002 1.794 1.456 3.248 3.25 3.25h24c1.794-0.001 3.249-1.456 3.25-3.25v-15.97c-0.002-1.794-1.456-3.248-3.25-3.25h-0zM28.75 21.984c-0 0.414-0.336 0.75-0.75 0.75h-24c-0.414-0-0.75-0.336-0.75-0.75v-15.97c0.006-0.412 0.338-0.744 0.749-0.75h24.001c0.412 0.006 0.744 0.338 0.75 0.749v0.001zM15.413 15.266l-0.397-0.176c-0.119-0.054-0.258-0.086-0.405-0.086-0.409 0-0.76 0.245-0.915 0.597l-0.003 0.006c-0.295 0.686-0.769 1.247-1.363 1.641l-0.014 0.009c-0.569 0.389-1.273 0.62-2.030 0.62-0.018 0-0.035-0-0.053-0l0.003 0c-0.022 0-0.048 0.001-0.075 0.001-1.032 0-1.963-0.43-2.625-1.12l-0.001-0.001c-0.69-0.677-1.118-1.619-1.118-2.661 0-0.034 0-0.067 0.001-0.101l-0 0.005c-0.001-0.029-0.001-0.063-0.001-0.097 0-1.041 0.428-1.983 1.117-2.659l0.001-0.001c0.663-0.691 1.594-1.12 2.625-1.12 0.027 0 0.054 0 0.080 0.001l-0.004-0c0.016-0 0.034-0 0.053-0 0.756 0 1.458 0.231 2.039 0.627l-0.013-0.008c0.609 0.403 1.083 0.964 1.369 1.626l0.009 0.024c0.108 0.245 0.304 0.435 0.547 0.533l0.007 0.002c0.108 0.044 0.233 0.069 0.364 0.069 0.147 0 0.287-0.032 0.412-0.090l-0.006 0.003 0.397-0.177c0.353-0.16 0.593-0.508 0.593-0.914 0-0.147-0.032-0.286-0.088-0.411l0.003 0.006c-0.494-1.112-1.269-2.023-2.237-2.667l-0.023-0.014c-0.947-0.641-2.115-1.023-3.372-1.023-0.019 0-0.039 0-0.058 0l0.003-0c-0.031-0.001-0.067-0.001-0.103-0.001-1.696 0-3.228 0.7-4.324 1.827l-0.001 0.001c-1.122 1.108-1.817 2.647-1.817 4.348 0 0.040 0 0.079 0.001 0.119l-0-0.006c-0.001 0.034-0.001 0.073-0.001 0.113 0 1.701 0.695 3.24 1.816 4.348l0.001 0.001c1.098 1.129 2.631 1.829 4.327 1.829 0.036 0 0.072-0 0.108-0.001l-0.005 0c0.017 0 0.037 0 0.058 0 1.256 0 2.422-0.382 3.389-1.037l-0.021 0.014c0.991-0.659 1.767-1.57 2.246-2.642l0.016-0.039c0.054-0.119 0.085-0.258 0.085-0.404 0-0.406-0.242-0.756-0.589-0.912l-0.006-0.003zM22.236 10.125c0.016-0 0.034-0 0.052-0 0.756 0 1.459 0.231 2.040 0.627l-0.013-0.008c0.608 0.403 1.082 0.964 1.368 1.626l0.009 0.024c0.108 0.246 0.304 0.436 0.548 0.533l0.007 0.002c0.108 0.044 0.232 0.069 0.363 0.069 0.147 0 0.287-0.032 0.413-0.091l-0.006 0.003 0.396-0.177c0.353-0.159 0.593-0.508 0.593-0.913 0-0.146-0.032-0.285-0.088-0.411l0.003 0.006c-0.493-1.112-1.268-2.023-2.235-2.668l-0.023-0.014c-0.967-0.647-2.157-1.033-3.437-1.033-3.444 0-6.236 2.792-6.236 6.236 0 0.022 0 0.044 0 0.065l-0-0.003c-0.001 0.033-0.001 0.072-0.001 0.112 0 1.702 0.695 3.241 1.816 4.351l0.001 0.001c1.134 1.129 2.697 1.826 4.424 1.826 1.277 0 2.466-0.382 3.457-1.038l-0.023 0.015c0.99-0.659 1.765-1.57 2.242-2.643l0.016-0.039c0.054-0.119 0.086-0.258 0.086-0.404 0-0.405-0.241-0.753-0.587-0.91l-0.006-0.003-0.396-0.176c-0.12-0.055-0.259-0.087-0.407-0.087-0.409 0-0.761 0.246-0.915 0.598l-0.003 0.006c-0.294 0.685-0.767 1.246-1.361 1.64l-0.014 0.009c-0.588 0.389-1.309 0.621-2.085 0.621-1.054 0-2.008-0.428-2.698-1.12l-0-0c-0.69-0.677-1.118-1.619-1.118-2.661 0-0.034 0-0.068 0.001-0.101l-0 0.005c-0.001-0.029-0.001-0.063-0.001-0.097 0-1.042 0.428-1.983 1.118-2.658l0.001-0.001c0.663-0.691 1.594-1.12 2.625-1.12 0.027 0 0.053 0 0.080 0.001l-0.004-0zM30 26.75h-28c-0.69 0-1.25 0.56-1.25 1.25s0.56 1.25 1.25 1.25v0h28c0.69 0 1.25-0.56 1.25-1.25s-0.56-1.25-1.25-1.25v0z"></path>
</svg>